<?xml version="1.0" standalone="no"?>
<!DOCTYPE svg PUBLIC "-//W3C//DTD SVG 20010904//EN"
 "http://www.w3.org/TR/2001/REC-SVG-20010904/DTD/svg10.dtd">
<svg version="1.0" xmlns="http://www.w3.org/2000/svg"
 width="5150.000000pt" height="2227.000000pt" viewBox="0 0 5150.000000 2227.000000"
 preserveAspectRatio="xMidYMid meet">

<g transform="translate(0.000000,2227.000000) scale(0.100000,-0.100000)"
fill="#FFFFFF" stroke="none">
<path d="M11280 21934 c-103 -22 -200 -75 -259 -142 -126 -139 -534 -733 -728
-1057 -316 -528 -628 -1164 -875 -1780 -375 -937 -797 -2230 -1213 -3715 -385
-1375 -701 -2363 -1014 -3171 l-42 -106 -107 -84 c-856 -664 -1726 -1523
-2773 -2739 -1645 -1910 -2899 -3959 -3605 -5890 -35 -96 -85 -218 -110 -270
-59 -121 -117 -288 -159 -460 -19 -74 -58 -218 -88 -320 -74 -251 -102 -437
-94 -615 6 -122 9 -140 45 -236 91 -240 118 -279 257 -362 88 -52 151 -75 237
-84 83 -8 219 30 333 95 11 6 50 24 86 40 113 50 215 130 339 268 63 70 124
134 134 143 10 9 33 28 51 43 17 15 45 46 61 70 15 24 69 86 119 138 199 209
499 590 832 1056 698 975 1819 2797 2705 4394 544 981 951 1759 1541 2950 456
921 561 1148 731 1581 l57 145 107 79 c827 607 1644 1142 2445 1599 142 81
260 146 263 144 2 -2 19 -371 39 -819 42 -973 59 -1321 85 -1779 71 -1216 166
-2133 295 -2835 246 -1338 634 -2634 1150 -3841 406 -949 827 -1699 1330
-2369 408 -544 808 -956 1350 -1392 138 -111 165 -130 165 -114 0 27 -252 322
-455 531 -920 951 -1652 2153 -2205 3625 -665 1769 -1084 4059 -1235 6745 -33
606 -51 1158 -61 1936 l-7 521 59 45 c268 205 861 592 1334 870 518 304 929
526 1570 846 690 345 1098 534 1840 852 627 268 1714 700 1728 686 3 -3 -2
-48 -11 -98 -358 -1970 -673 -3873 -937 -5662 -33 -226 -62 -411 -63 -412 -1
-1 -27 -19 -57 -40 -119 -81 -622 -484 -920 -738 -96 -82 -241 -204 -321 -271
-199 -166 -474 -373 -484 -363 -2 2 -10 53 -17 113 -17 142 -17 940 0 1295 22
442 42 756 52 810 6 29 10 101 10 160 0 179 -38 252 -159 309 -51 24 -67 26
-178 26 -96 0 -125 -3 -137 -15 -8 -8 -55 -116 -104 -240 -601 -1504 -1177
-2604 -1483 -2831 -83 -61 -82 -61 -123 62 -46 138 -79 369 -108 749 -17 216
-16 986 0 1335 24 502 16 891 -19 957 -49 91 -142 -207 -233 -747 -145 -859
-191 -1704 -120 -2184 51 -343 167 -584 318 -655 223 -106 490 -2 752 291 253
284 582 820 898 1463 l111 225 6 -255 c18 -682 109 -1095 276 -1251 146 -137
294 -98 598 156 129 107 640 592 843 800 226 230 356 373 476 522 49 62 91
111 93 110 1 -2 -18 -147 -42 -323 -242 -1717 -426 -3321 -515 -4484 -11 -151
-36 -396 -55 -545 -66 -528 -75 -694 -55 -1020 14 -226 29 -358 51 -444 57
-224 189 -361 378 -392 185 -31 382 65 582 283 110 120 185 220 243 325 27 47
69 109 95 137 68 75 296 446 514 836 532 954 1154 2310 1741 3800 64 162 123
309 131 325 14 27 15 27 11 5 -3 -14 -14 -88 -25 -165 -94 -649 -7 -1066 253
-1220 96 -57 153 -69 306 -69 206 1 273 24 435 149 130 101 254 240 358 401
68 106 189 343 241 474 53 134 190 600 271 922 l57 225 82 33 c126 51 351 162
463 229 212 127 434 318 528 455 l40 59 2 -54 c15 -316 89 -528 274 -774 135
-180 289 -254 504 -241 167 10 274 48 433 155 372 250 735 646 1117 1220 70
105 129 190 130 189 2 -2 8 -678 15 -1503 l12 -1500 -110 -225 c-722 -1480
-1365 -3377 -1626 -4800 -147 -801 -168 -1452 -61 -1864 50 -193 144 -369 247
-461 114 -102 227 -145 403 -152 150 -6 238 11 353 68 178 87 361 319 509 642
140 306 199 473 248 702 14 66 47 208 74 315 58 231 75 328 96 555 9 94 25
232 36 308 11 76 24 195 29 263 5 69 12 129 14 133 3 4 12 85 21 181 9 96 23
249 31 340 8 91 22 197 29 235 14 68 49 513 80 1000 52 839 85 1639 105 2585
l10 465 179 360 c483 969 904 1613 1318 2018 55 53 105 97 111 97 6 0 23 -16
38 -35 45 -59 174 -156 269 -202 161 -77 351 -110 570 -99 420 22 765 52 1015
87 148 21 362 62 406 80 51 19 53 14 27 -73 -44 -153 -182 -671 -223 -843
-141 -587 -231 -1076 -272 -1475 -19 -187 -16 -552 5 -674 42 -240 123 -382
250 -442 82 -38 124 -40 214 -11 43 14 96 28 118 32 22 4 63 19 90 34 28 16
73 41 100 56 69 39 258 225 312 310 25 38 73 97 107 130 74 72 228 289 464
652 190 291 537 841 754 1192 76 123 138 221 138 217 0 -4 -13 -60 -30 -125
-62 -246 -75 -352 -74 -621 0 -217 2 -257 23 -350 70 -327 173 -506 339 -587
72 -36 82 -38 190 -42 256 -8 409 49 688 257 244 182 394 315 829 741 177 173
297 306 610 671 215 250 426 499 470 553 44 54 81 94 83 88 2 -6 -3 -102 -12
-213 -31 -414 -38 -638 -33 -1062 4 -339 9 -454 26 -588 63 -517 186 -821 383
-948 148 -96 328 -91 491 14 73 46 167 135 243 230 73 91 305 433 479 706 65
102 203 314 306 472 240 366 403 624 546 862 62 104 113 182 113 174 0 -9 -11
-126 -25 -260 -50 -496 -58 -655 -59 -1063 0 -585 20 -691 152 -792 59 -45
110 -58 227 -57 119 0 189 23 268 88 68 56 111 122 202 316 107 229 568 1150
705 1410 254 482 515 939 644 1130 l51 75 7 -50 c26 -193 18 -1015 -17 -1750
-14 -295 -10 -355 25 -447 86 -227 336 -303 525 -160 77 58 138 149 285 424
321 601 814 1368 1121 1744 76 93 169 199 169 193 0 -2 7 -53 15 -114 33 -247
30 -524 -10 -830 -43 -337 -47 -1055 -7 -1310 64 -406 198 -602 407 -599 140
2 273 80 465 273 310 312 805 1040 1171 1724 46 87 85 151 87 143 2 -8 -10
-156 -27 -328 -62 -630 -78 -984 -61 -1349 12 -271 26 -357 68 -433 112 -199
442 -210 621 -21 42 44 74 102 188 337 535 1104 1004 1988 1297 2442 64 101
70 107 79 85 5 -13 12 -211 14 -439 5 -392 -1 -687 -29 -1351 -13 -316 -9
-358 41 -464 67 -142 213 -221 359 -194 73 14 116 36 181 95 70 63 105 118
256 399 123 231 362 638 490 835 34 52 77 120 95 150 90 145 284 430 385 565
123 163 300 375 314 375 35 0 49 -653 18 -875 -35 -258 -42 -380 -41 -785 0
-328 3 -429 17 -530 56 -403 170 -611 356 -651 95 -20 220 19 346 109 68 49
222 199 309 302 234 276 581 783 848 1240 121 206 410 745 526 977 138 277
145 298 84 255 -45 -33 -139 -143 -428 -502 -320 -398 -509 -640 -784 -1005
-418 -556 -756 -952 -787 -922 -3 4 -10 68 -16 144 -15 201 7 791 54 1441 15
219 7 694 -15 822 -49 282 -132 442 -264 507 -136 66 -356 13 -587 -142 -244
-164 -418 -397 -791 -1061 -86 -154 -191 -340 -234 -414 -44 -74 -102 -178
-130 -230 -31 -58 -49 -83 -46 -65 28 156 40 530 27 800 -39 773 -98 1057
-252 1220 -65 69 -99 90 -175 110 -71 18 -133 9 -232 -36 -217 -98 -469 -387
-717 -824 -98 -171 -280 -533 -359 -715 -58 -132 -468 -1140 -592 -1455 l-39
-100 -3 60 c-4 75 22 514 49 820 39 455 105 964 174 1346 69 381 70 394 57
457 -6 31 -24 75 -40 97 -63 90 -207 128 -286 75 -92 -62 -162 -234 -223 -550
l-37 -185 -236 -295 c-290 -363 -410 -517 -715 -920 -268 -355 -350 -458 -511
-646 -117 -136 -240 -264 -255 -264 -20 0 -24 73 -24 410 1 354 11 587 43
1005 23 311 23 810 -1 962 -26 163 -52 258 -97 349 -116 237 -307 281 -605
139 -154 -74 -291 -183 -431 -343 -119 -136 -284 -400 -566 -902 -91 -162
-180 -320 -198 -350 -18 -30 -62 -107 -97 -170 -61 -109 -64 -113 -59 -70 27
205 35 652 16 930 -18 262 -41 503 -56 595 -57 343 -185 542 -377 585 -37 8
-62 7 -112 -5 -312 -72 -625 -449 -1009 -1215 -165 -330 -212 -438 -547 -1272
-136 -340 -253 -626 -259 -636 -7 -12 -9 8 -5 73 3 50 10 173 15 275 25 442
68 895 126 1320 35 257 100 651 129 790 9 41 16 110 16 153 1 140 -63 226
-190 257 -133 32 -228 -66 -300 -308 -30 -102 -91 -384 -91 -421 0 -11 -35
-66 -77 -123 -156 -209 -352 -488 -467 -663 -198 -301 -1411 -1865 -1447
-1865 -15 0 -68 115 -94 206 -62 214 -89 417 -106 785 -12 275 -10 315 41 834
16 165 36 393 45 507 15 204 40 416 71 614 16 97 16 101 -4 140 -21 42 -88
133 -145 199 l-35 40 -89 0 c-78 0 -96 -4 -153 -31 -36 -17 -94 -55 -130 -85
-177 -147 -592 -593 -1051 -1129 -526 -614 -1137 -1214 -1379 -1354 -89 -52
-196 -106 -208 -106 -22 0 -76 161 -98 291 -22 134 -15 402 15 574 48 269 131
550 249 840 313 768 743 1441 1251 1959 380 387 712 617 969 672 113 23 203
14 294 -32 69 -35 173 -137 212 -208 41 -72 132 -296 171 -416 28 -86 93 -220
107 -220 4 0 15 11 24 25 38 58 -3 299 -102 607 -60 186 -94 250 -176 332 -40
40 -103 89 -139 109 -265 148 -640 82 -1083 -190 -578 -355 -1224 -1098 -1708
-1963 -35 -64 -93 -151 -127 -195 -93 -116 -250 -339 -535 -758 -265 -390
-526 -764 -581 -832 -18 -22 -102 -141 -187 -265 -441 -642 -514 -736 -729
-944 -166 -162 -409 -350 -427 -332 -3 3 -6 88 -6 189 -3 624 257 1816 705
3230 70 223 73 262 28 330 -22 33 -46 54 -85 73 -101 49 -223 22 -391 -88
-147 -95 -406 -166 -824 -228 -239 -35 -609 -71 -779 -77 -147 -5 -174 -3
-250 16 -104 26 -175 68 -249 146 -94 101 -141 224 -186 490 -89 523 -43 1158
132 1849 111 438 272 864 499 1318 150 300 263 479 383 610 59 64 170 148 196
148 29 0 60 -111 76 -275 36 -373 -44 -1008 -271 -2131 -112 -551 -255 -1197
-325 -1469 -97 -375 -144 -625 -117 -625 85 0 514 1152 762 2048 146 529 284
1182 340 1612 27 208 37 527 21 670 -27 234 -88 388 -193 486 -230 214 -497
170 -791 -130 -156 -160 -277 -334 -396 -572 -237 -475 -505 -1223 -661 -1842
-77 -309 -173 -788 -206 -1032 -48 -361 -17 -742 85 -1050 42 -124 110 -277
156 -350 15 -24 24 -45 19 -47 -33 -11 -186 -106 -260 -161 -111 -83 -336
-307 -473 -471 -228 -274 -473 -627 -709 -1023 l-130 -218 -6 418 c-15 942
-60 1995 -96 2255 -20 141 -52 248 -84 285 -47 53 -236 68 -323 25 -37 -18
-100 -118 -427 -683 -232 -399 -659 -977 -878 -1185 -149 -142 -327 -245 -425
-245 -206 0 -415 540 -373 964 20 209 70 368 186 596 133 263 285 486 475 698
150 167 355 319 609 451 167 86 278 130 456 178 122 32 153 37 254 37 146 1
229 -24 345 -103 70 -47 132 -81 150 -81 31 0 -102 172 -178 229 -87 66 -183
101 -318 117 -111 12 -391 -36 -589 -102 -132 -44 -436 -193 -557 -274 -429
-287 -834 -791 -1006 -1250 -48 -129 -101 -312 -128 -443 -22 -105 -24 -109
-63 -140 -23 -17 -87 -71 -143 -119 -188 -163 -438 -294 -782 -412 l-134 -46
6 67 c3 38 13 133 21 213 78 731 59 985 -94 1296 -79 160 -125 228 -195 292
-106 97 -203 132 -365 132 -270 0 -480 -89 -666 -281 -83 -86 -197 -255 -260
-384 -160 -330 -214 -768 -135 -1098 l18 -77 -260 -518 c-262 -520 -763 -1537
-1014 -2057 -695 -1442 -1304 -2573 -1748 -3246 -145 -219 -379 -539 -394
-539 -11 0 -19 56 -31 215 -19 262 -9 659 30 1220 11 154 27 413 35 575 98
1875 337 3986 746 6570 129 814 286 1747 568 3370 49 283 115 668 146 855 32
187 62 345 69 352 34 36 1178 411 1931 633 3636 1070 6784 1495 9430 1274
2566 -214 4662 -1023 6301 -2430 360 -309 708 -661 1047 -1057 85 -98 159
-171 261 -256 78 -65 176 -152 217 -193 l76 -74 -21 51 c-38 92 -163 340 -226
451 -835 1456 -2588 2563 -5010 3164 -1105 274 -2234 427 -3620 492 -576 26
-1622 14 -2335 -28 -2491 -145 -5092 -665 -7650 -1528 -187 -63 -341 -113
-343 -112 -1 2 13 104 33 228 232 1484 263 2189 101 2337 -14 14 -28 23 -30
20 -14 -14 -286 -1361 -441 -2179 -47 -250 -91 -481 -98 -513 l-12 -58 -340
-128 c-2366 -894 -4283 -1840 -6022 -2973 -117 -76 -213 -138 -215 -138 -6 0
11 1266 22 1640 19 665 44 1058 111 1720 44 437 63 594 114 905 37 227 42 254
230 1250 202 1072 231 1290 222 1645 -5 182 -9 226 -28 285 -51 165 -202 228
-429 179z m-112 -951 c-16 -189 -94 -661 -243 -1478 -169 -929 -242 -1454
-305 -2205 -64 -769 -90 -1501 -90 -2582 l0 -696 -97 -53 c-872 -468 -1538
-873 -2345 -1428 -82 -56 -148 -100 -148 -98 0 2 18 52 39 110 166 446 472
1457 786 2592 385 1393 701 2406 1040 3335 229 627 590 1381 933 1945 156 256
416 645 431 645 4 0 3 -39 -1 -87z m9720 -9109 c30 -20 77 -94 103 -163 70
-188 84 -496 43 -946 -17 -181 -68 -563 -77 -572 -3 -3 -53 -8 -111 -10 -177
-9 -288 24 -391 119 -68 62 -123 169 -162 314 -23 87 -26 119 -27 264 -1 181
10 256 66 430 55 171 145 323 264 445 129 133 216 168 292 119z m4488 -32
c-18 -16 -18 -16 -6 6 6 13 14 21 18 18 3 -4 -2 -14 -12 -24z m-18612 -817
c-133 -320 -688 -1460 -1032 -2120 -801 -1540 -1995 -3586 -2941 -5039 -651
-999 -1281 -1810 -1709 -2199 -100 -91 -248 -197 -274 -197 -21 0 -39 73 -45
192 -10 163 32 460 85 618 75 220 194 500 258 610 8 14 39 97 70 185 364 1045
932 2188 1637 3300 930 1465 2298 3140 3451 4224 211 198 502 461 510 461 3 0
-2 -16 -10 -35z m13526 -1115 c145 -86 326 -122 507 -102 58 6 108 10 109 9 5
-4 -58 -243 -101 -389 -115 -384 -291 -751 -469 -974 -56 -71 -77 -89 -156
-134 -51 -28 -98 -49 -105 -46 -14 5 -48 90 -71 176 -44 169 -60 560 -35 840
20 220 72 585 107 752 l5 27 72 -60 c40 -34 101 -78 137 -99z m4749 -2800
c-75 -2099 -309 -4028 -614 -5065 -159 -541 -354 -850 -512 -810 -42 10 -108
85 -133 152 -93 245 -107 821 -35 1388 102 790 420 2069 794 3195 174 521 491
1377 504 1359 2 -2 0 -101 -4 -219z"/>
<path d="M37555 16682 c4 -20 2 -38 -5 -47 -17 -20 -8 -65 62 -310 75 -266 91
-332 177 -760 83 -410 108 -568 156 -1000 19 -176 53 -450 75 -609 22 -159 38
-292 35 -294 -9 -9 -600 545 -1055 988 -511 498 -643 614 -918 807 -248 174
-491 286 -509 235 -3 -7 70 -88 161 -180 150 -152 190 -198 154 -176 -7 5 11
-19 40 -51 30 -33 196 -222 370 -420 175 -198 364 -411 422 -475 58 -63 173
-191 255 -285 187 -213 462 -493 580 -593 109 -91 226 -169 332 -220 l78 -37
185 -3 c209 -3 224 1 254 61 16 35 37 171 38 257 1 30 -42 412 -57 510 -3 19
-17 150 -30 290 -14 140 -32 306 -40 368 -18 126 -216 928 -266 1074 -91 267
-288 631 -454 843 -44 56 -47 58 -40 27z m-1530 -1472 c66 -66 117 -120 115
-120 -3 0 -59 54 -125 120 -66 66 -117 120 -115 120 3 0 59 -54 125 -120z"/>
<path d="M50455 5424 c-11 -3 -47 -12 -79 -20 -79 -19 -177 -64 -169 -77 3 -5
1 -7 -4 -4 -21 13 -148 -92 -208 -173 -272 -368 -135 -881 284 -1067 116 -51
294 -69 421 -42 110 24 310 125 294 150 -3 5 -2 8 3 7 25 -8 125 106 176 202
91 169 106 371 43 557 -36 104 -127 250 -149 236 -5 -3 -7 -2 -4 4 10 17 -123
130 -136 116 -4 -3 -7 -2 -7 3 0 15 -59 46 -72 38 -6 -4 -8 -3 -5 3 4 6 -27
22 -76 38 -62 20 -107 28 -187 30 -58 2 -114 2 -125 -1z m224 -139 c35 -9 94
-30 130 -47 36 -18 71 -31 76 -29 6 1 7 -1 3 -5 -4 -4 7 -18 25 -31 41 -30
117 -121 146 -176 74 -137 85 -324 30 -474 -48 -126 -157 -245 -283 -307 -90
-44 -139 -55 -246 -56 -164 0 -293 52 -405 165 -116 116 -168 240 -169 400 -1
219 119 415 313 514 108 56 260 74 380 46z"/>
<path d="M50445 5107 c-115 -39 -193 -105 -244 -209 -76 -154 -41 -341 84
-457 154 -142 385 -143 539 -1 204 188 150 525 -102 643 -55 26 -81 32 -152
34 -52 2 -101 -2 -125 -10z m186 -133 c67 -20 148 -97 167 -160 42 -142 -26
-284 -157 -329 -205 -70 -392 116 -329 328 18 61 92 135 158 157 68 24 92 24
161 4z"/>
<path d="M33740 4761 c-72 -22 -164 -100 -217 -184 -81 -127 -192 -391 -247
-585 -54 -190 -72 -317 -59 -411 16 -107 47 -182 98 -239 47 -52 94 -77 179
-93 72 -14 405 9 543 37 l31 6 -34 -108 c-48 -152 -110 -404 -123 -497 -14
-102 -14 -230 0 -278 7 -21 25 -51 41 -66 25 -23 37 -28 78 -27 72 3 135 38
226 129 74 74 320 392 459 595 66 96 78 112 71 90 -69 -207 -96 -336 -96 -454
0 -162 66 -233 205 -224 52 3 73 10 119 41 31 20 76 63 101 95 78 98 114 179
175 389 l20 72 55 20 c81 31 166 75 218 115 26 20 50 36 53 36 3 0 2 -46 -1
-102 -4 -57 -10 -224 -14 -373 l-7 -270 -143 -190 c-318 -421 -530 -787 -592
-1026 -61 -235 6 -428 167 -475 77 -22 193 -16 251 14 84 43 187 199 237 354
102 324 168 701 205 1186 l10 123 149 192 c82 105 195 253 252 327 116 153
107 158 74 -40 -21 -123 -30 -438 -15 -527 19 -110 70 -174 168 -209 51 -18
168 -17 229 1 62 18 208 113 299 194 228 203 493 552 652 858 29 57 53 100 53
95 0 -4 -18 -105 -40 -225 -74 -409 -133 -823 -165 -1167 -9 -90 -18 -174 -20
-185 -29 -124 -21 -357 13 -424 37 -71 129 -93 216 -52 183 89 560 708 954
1566 172 377 184 404 180 433 -3 25 -7 21 -50 -44 -55 -85 -179 -299 -388
-669 -259 -458 -467 -796 -598 -970 -77 -101 -143 -175 -153 -169 -12 7 -11
272 1 414 26 294 74 650 231 1705 39 264 71 480 72 481 1 1 108 11 237 23 623
57 1019 119 1070 168 13 12 13 15 1 23 -57 34 -463 12 -1110 -61 -96 -11 -176
-18 -177 -16 -2 2 8 84 21 183 31 216 42 363 27 349 -16 -16 -53 -137 -107
-350 l-50 -199 -208 -27 c-207 -28 -450 -69 -517 -89 -170 -49 25 -64 458 -34
128 9 235 14 238 12 7 -7 -129 -647 -137 -642 -10 6 -100 -95 -312 -351 -332
-400 -543 -609 -696 -689 -92 -48 -143 -49 -170 -5 -36 60 -71 258 -71 408 l0
64 78 81 c174 182 334 392 404 529 34 69 59 176 51 221 -14 74 -76 126 -150
126 -129 0 -298 -185 -416 -454 -38 -85 -49 -100 -181 -236 -78 -80 -193 -206
-256 -279 -103 -120 -115 -132 -118 -108 -2 14 4 124 13 244 40 554 28 823
-36 823 -43 0 -71 -98 -92 -330 -15 -157 -10 -149 -109 -200 -58 -30 -208 -83
-215 -76 -2 2 1 54 8 116 16 154 9 237 -27 307 -43 82 -89 116 -168 121 -94 6
-163 -17 -228 -77 -89 -82 -138 -198 -138 -329 l0 -63 -147 -183 c-82 -101
-200 -248 -265 -327 -110 -136 -197 -220 -280 -269 l-37 -21 -6 33 c-17 91 53
402 166 740 43 131 79 242 79 247 0 21 -33 41 -67 41 -19 0 -65 -13 -102 -30
-103 -45 -391 -87 -541 -78 -109 6 -156 53 -186 186 -21 94 -14 274 15 402 62
270 240 608 352 666 28 14 30 14 40 -13 18 -46 4 -262 -26 -408 -35 -172 -106
-466 -149 -618 -19 -67 -37 -138 -41 -157 l-6 -35 20 25 c11 14 49 93 85 175
186 436 290 877 245 1038 -14 51 -63 104 -107 117 -42 11 -47 11 -82 1z m3010
-1152 c0 -44 -43 -165 -94 -267 -54 -107 -288 -462 -293 -445 -6 18 25 179 49
253 29 91 78 193 136 282 56 84 179 221 193 212 5 -3 9 -19 9 -35z m-1608 -56
c46 -51 51 -235 12 -425 -5 -26 -9 -28 -57 -28 -72 0 -116 26 -147 86 -52 100
-24 242 66 331 57 58 97 69 126 36z m-256 -494 c17 -28 110 -59 177 -59 79 0
78 2 41 -102 -36 -99 -74 -172 -123 -238 -40 -53 -102 -97 -121 -85 -36 22
-44 230 -15 393 17 97 25 116 41 91z m699 -866 c-3 -16 -16 -104 -31 -198 -85
-558 -197 -914 -330 -1050 -37 -39 -49 -45 -83 -45 -50 0 -104 43 -122 97 -44
134 60 434 272 785 98 163 281 438 291 438 4 0 5 -12 3 -27z"/>
<path d="M48811 4579 c-70 -14 -170 -49 -246 -87 -198 -98 -364 -276 -501
-536 l-54 -101 0 328 0 327 -616 0 -616 0 6 -22 c35 -123 122 -492 143 -603
l26 -140 4 -750 c5 -757 1 -867 -32 -1062 -13 -71 -114 -496 -141 -590 l-6
-23 706 0 c388 0 706 3 706 6 0 3 -31 130 -69 282 -114 456 -105 349 -109
1283 l-3 815 78 37 c118 55 196 70 333 64 134 -6 242 -36 359 -98 93 -50 238
-159 316 -238 33 -34 67 -61 75 -61 14 0 29 85 94 538 43 295 79 546 80 556 4
54 -373 107 -533 75z"/>
<path d="M41060 4544 c-326 -15 -749 -76 -1207 -175 l-193 -42 0 -463 c0 -293
4 -464 10 -464 5 0 83 58 172 128 507 398 919 655 1142 712 98 25 129 25 183
0 77 -34 120 -133 143 -325 6 -44 13 -228 17 -409 5 -288 4 -329 -9 -324 -276
106 -702 147 -978 93 -107 -20 -276 -73 -294 -91 -8 -7 -16 -11 -19 -8 -7 7
-87 -35 -179 -93 -79 -50 -221 -181 -211 -196 3 -5 2 -7 -4 -4 -21 13 -134
-163 -174 -273 -108 -295 -66 -643 109 -915 48 -76 167 -205 188 -205 7 0 17
-7 21 -15 5 -8 40 -35 78 -60 177 -114 416 -166 664 -145 204 18 349 66 510
171 107 69 258 210 246 230 -5 8 -4 10 3 5 7 -4 26 16 48 49 21 31 40 52 44
48 4 -4 15 -30 24 -58 49 -136 166 -279 286 -349 137 -80 320 -115 503 -96
104 11 239 50 271 78 10 9 20 15 23 14 9 -7 122 82 157 123 83 100 146 244
146 334 l0 39 -65 -24 c-81 -29 -178 -32 -215 -7 -47 32 -72 73 -97 160 -15
52 -18 146 -23 848 -5 678 -9 802 -23 876 -20 105 -68 245 -109 319 -46 84
-137 202 -150 194 -6 -4 -8 -3 -5 4 17 27 -175 160 -307 212 -189 76 -465 115
-726 104z m217 -1550 l53 -5 2 -517 3 -517 -30 -27 c-37 -32 -127 -79 -185
-95 -42 -12 -219 -6 -267 10 -29 9 -53 13 -53 9 0 -4 -4 -2 -8 3 -4 6 -29 25
-57 43 -44 28 -160 127 -127 108 7 -4 -2 14 -19 39 -68 100 -98 219 -99 385
-1 280 112 457 341 537 111 38 252 47 446 27z"/>
<path d="M45125 4539 c-55 -5 -143 -19 -196 -33 -109 -27 -262 -93 -252 -109
3 -5 1 -7 -4 -4 -34 21 -332 -249 -403 -366 -19 -31 -38 -57 -42 -57 -5 0 -8
122 -8 270 l0 270 -610 0 c-335 0 -610 -2 -610 -4 0 -3 15 -62 34 -133 52
-198 103 -426 123 -553 16 -103 18 -195 18 -910 0 -714 -2 -806 -18 -904 -21
-132 -75 -373 -122 -549 -19 -70 -35 -130 -35 -132 0 -3 318 -5 706 -5 667 0
705 1 700 18 -15 49 -99 382 -121 482 -59 262 -58 251 -62 1125 l-4 810 78 42
c86 45 203 85 301 104 57 11 210 8 267 -5 37 -8 139 -56 172 -82 27 -20 37
-23 48 -14 12 10 13 8 10 -9 -4 -20 9 -35 30 -36 6 -1 9 -7 7 -14 -1 -7 7 -26
19 -42 24 -34 68 -153 69 -185 0 -11 2 -23 5 -26 11 -10 5 -1320 -6 -1417 -13
-120 -46 -280 -110 -531 -27 -108 -49 -201 -49 -208 0 -9 160 -12 700 -12 413
0 700 4 700 9 0 5 -20 87 -45 183 -135 525 -135 521 -135 1363 0 391 -4 718
-10 770 -13 112 -45 244 -76 313 -13 29 -24 55 -24 57 0 12 -69 116 -114 174
-57 72 -191 185 -209 175 -7 -4 -9 -3 -4 1 4 5 -5 16 -20 26 -20 13 -30 15
-40 7 -10 -8 -12 -7 -8 4 4 11 -13 23 -62 46 -171 77 -369 108 -588 91z"/>
<path d="M35957 4220 c-93 -29 -237 -106 -330 -176 -109 -82 -127 -124 -51
-124 97 0 358 129 469 231 49 46 55 63 26 79 -27 14 -46 12 -114 -10z"/>
<path d="M32681 3479 c-119 -36 -224 -169 -313 -394 -19 -47 -78 -283 -113
-448 -9 -43 -18 -77 -20 -75 -2 2 3 82 11 178 17 204 30 689 20 716 -6 16 -9
17 -16 4 -30 -53 -69 -539 -105 -1300 -4 -74 -18 -205 -31 -290 -30 -197 -70
-541 -87 -737 -15 -174 -23 -156 85 -169 68 -8 59 -36 88 251 50 490 145 1114
216 1415 108 459 182 645 283 712 57 39 143 10 177 -60 15 -29 19 -60 19 -150
l0 -114 -40 -31 c-73 -57 -205 -190 -235 -237 -54 -85 -52 -137 6 -165 54 -25
124 -16 172 22 84 67 164 206 204 352 l23 83 100 88 c55 49 123 112 150 140
l50 53 -53 -29 c-29 -16 -91 -57 -137 -91 -47 -35 -87 -63 -89 -63 -2 0 -6 29
-9 65 -12 122 -72 212 -172 256 -52 23 -139 32 -184 18z m143 -651 c-51 -87
-134 -185 -134 -159 0 16 31 61 84 123 38 44 67 64 50 36z"/>
</g>
</svg>
